<svg width="34" height="36" viewBox="0 0 34 36" fill="none" xmlns="http://www.w3.org/2000/svg">
<path d="M17.0001 22.8C19.5038 22.8 21.5335 20.651 21.5335 18C21.5335 15.349 19.5038 13.2 17.0001 13.2C14.4964 13.2 12.4668 15.349 12.4668 18C12.4668 20.651 14.4964 22.8 17.0001 22.8Z" fill="black"/>
<path d="M12.75 3L10.1575 6H5.66671C4.10837 6 2.83337 7.35 2.83337 9V27C2.83337 28.65 4.10837 30 5.66671 30H28.3334C29.8917 30 31.1667 28.65 31.1667 27V9C31.1667 7.35 29.8917 6 28.3334 6H23.8425L21.25 3H12.75ZM17 25.5C13.09 25.5 9.91671 22.14 9.91671 18C9.91671 13.86 13.09 10.5 17 10.5C20.91 10.5 24.0834 13.86 24.0834 18C24.0834 22.14 20.91 25.5 17 25.5Z" fill="black"/>
</svg>
