<svg width="28" height="33" viewBox="0 0 28 33" fill="none" xmlns="http://www.w3.org/2000/svg">
<g id="filter">
<g id="Group">
<path id="Vector" d="M11 5.2959H2" stroke="black" stroke-width="2.25" stroke-linecap="round"/>
<path id="Vector_2" d="M17 5.2959H26" stroke="black" stroke-width="2.25" stroke-linecap="round"/>
<path id="Vector_3" d="M20 16.8316H2" stroke="black" stroke-width="2.25" stroke-linecap="round"/>
<path id="Vector_4" d="M8 28.3672H26" stroke="black" stroke-width="2.25" stroke-linecap="round"/>
<path id="Vector_5" d="M8 28.3673C8 26.5469 6.65686 25.0714 5 25.0714C3.34314 25.0714 2 26.5469 2 28.3673C2 30.1876 3.34314 31.6632 5 31.6632C6.65686 31.6632 8 30.1876 8 28.3673Z" stroke="black" stroke-width="2.25" stroke-linecap="round"/>
<path id="Vector_6" d="M26 16.8316C26 15.0112 24.6569 13.5356 23 13.5356C21.3431 13.5356 20 15.0112 20 16.8316C20 18.6519 21.3431 20.1275 23 20.1275C24.6569 20.1275 26 18.6519 26 16.8316Z" stroke="black" stroke-width="2.25" stroke-linecap="round"/>
<path id="Vector_7" d="M17 5.29591C17 3.47563 15.6569 2 14 2C12.3431 2 11 3.47563 11 5.29591C11 7.11619 12.3431 8.59182 14 8.59182C15.6569 8.59182 17 7.11619 17 5.29591Z" stroke="black" stroke-width="2.25" stroke-linecap="round"/>
</g>
</g>
</svg>
