<svg xmlns="http://www.w3.org/2000/svg" width="28" height="33" fill="none" viewBox="0 0 28 33"><g id="filter"><g id="Group"><path id="Vector" stroke="#000" stroke-linecap="round" stroke-width="2.25" d="M11 5.2959H2"/><path id="Vector_2" stroke="#000" stroke-linecap="round" stroke-width="2.25" d="M17 5.2959H26"/><path id="Vector_3" stroke="#000" stroke-linecap="round" stroke-width="2.25" d="M20 16.8316H2"/><path id="Vector_4" stroke="#000" stroke-linecap="round" stroke-width="2.25" d="M8 28.3672H26"/><path id="Vector_5" stroke="#000" stroke-linecap="round" stroke-width="2.25" d="M8 28.3673C8 26.5469 6.65686 25.0714 5 25.0714C3.34314 25.0714 2 26.5469 2 28.3673C2 30.1876 3.34314 31.6632 5 31.6632C6.65686 31.6632 8 30.1876 8 28.3673Z"/><path id="Vector_6" stroke="#000" stroke-linecap="round" stroke-width="2.25" d="M26 16.8316C26 15.0112 24.6569 13.5356 23 13.5356C21.3431 13.5356 20 15.0112 20 16.8316C20 18.6519 21.3431 20.1275 23 20.1275C24.6569 20.1275 26 18.6519 26 16.8316Z"/><path id="Vector_7" stroke="#000" stroke-linecap="round" stroke-width="2.25" d="M17 5.29591C17 3.47563 15.6569 2 14 2C12.3431 2 11 3.47563 11 5.29591C11 7.11619 12.3431 8.59182 14 8.59182C15.6569 8.59182 17 7.11619 17 5.29591Z"/></g></g></svg>