<svg width="50" height="56" viewBox="0 0 50 56" fill="none" xmlns="http://www.w3.org/2000/svg">
<path d="M25.0001 49.0486C24.7259 49.0503 24.4541 48.9926 24.2003 48.8787C23.9464 48.7648 23.7156 48.5969 23.5209 48.3848L7.33339 30.5778C5.3029 28.3237 4.16394 25.2804 4.16394 22.1091C4.16394 18.9378 5.3029 15.8945 7.33339 13.6404C9.37977 11.3986 12.1518 10.1396 15.0417 10.1396C17.9317 10.1396 20.7037 11.3986 22.7501 13.6404L25.0001 16.1124L27.2501 13.6404C29.2964 11.3986 32.0685 10.1396 34.9584 10.1396C37.8483 10.1396 40.6203 11.3986 42.6667 13.6404C44.6972 15.8945 45.8362 18.9378 45.8362 22.1091C45.8362 25.2804 44.6972 28.3237 42.6667 30.5778L26.4792 48.3848C26.2846 48.5969 26.0537 48.7648 25.7999 48.8787C25.546 48.9926 25.2742 49.0503 25.0001 49.0486Z" fill="#231F20"/>
</svg>
