<svg width="46" height="51" viewBox="0 0 46 51" fill="none" xmlns="http://www.w3.org/2000/svg">
<path d="M22.7555 50.7859C16.7204 50.7859 10.9324 48.152 6.66493 43.4636C2.39745 38.7752 0 32.4164 0 25.7859C0 19.1555 2.39745 12.7967 6.66493 8.10828C10.9324 3.41987 16.7204 0.78595 22.7555 0.78595C28.7906 0.78595 34.5786 3.41987 38.8461 8.10828C43.1135 12.7967 45.511 19.1555 45.511 25.7859C45.511 32.4164 43.1135 38.7752 38.8461 43.4636C34.5786 48.152 28.7906 50.7859 22.7555 50.7859ZM27.3066 18.2859C27.3066 18.986 26.8287 20.2859 26.3509 20.7859L22.7555 24.736C21.4584 26.1859 20.4799 28.736 20.4799 30.7859V33.2859H25.031V30.7859C25.031 30.0609 25.5089 28.7859 25.9868 28.2859L29.5821 24.3359C30.8792 22.886 31.8577 20.3359 31.8577 18.2859C31.8577 15.6338 30.8987 13.0902 29.1917 11.2149C27.4847 9.33952 25.1695 8.28595 22.7555 8.28595C20.3414 8.28595 18.0263 9.33952 16.3193 11.2149C14.6123 13.0902 13.6533 15.6338 13.6533 18.2859H18.2044C18.2044 16.9599 18.6839 15.6881 19.5374 14.7504C20.3909 13.8127 21.5485 13.2859 22.7555 13.2859C23.9625 13.2859 25.1201 13.8127 25.9736 14.7504C26.8271 15.6881 27.3066 16.9599 27.3066 18.2859ZM20.4799 38.2859V43.2859H25.031V38.2859H20.4799Z" fill="black"/>
</svg>
