<svg width="25" height="24" viewBox="0 0 25 24" fill="none" xmlns="http://www.w3.org/2000/svg">
<g id="Like">
<path id="Vector" d="M12.4999 21.62C12.3465 21.6195 12.1976 21.5703 12.0763 21.48C8.21523 18.6 5.5555 16.12 3.69439 13.6733C1.31939 10.5467 0.777726 7.66001 2.08328 5.09334C3.01384 3.26001 5.68745 1.76001 8.81245 2.63334C10.3024 3.0465 11.6024 3.93253 12.4999 5.14667C13.3975 3.93253 14.6975 3.0465 16.1874 2.63334C19.3055 1.77334 21.9861 3.26001 22.9166 5.09334C24.2222 7.66001 23.6805 10.5467 21.3055 13.6733C19.4444 16.12 16.7847 18.6 12.9236 21.48C12.8023 21.5703 12.6534 21.6195 12.4999 21.62ZM7.03467 3.72001C6.2911 3.69222 5.55368 3.85937 4.90158 4.20351C4.24947 4.54764 3.70731 5.05577 3.33328 5.67334C2.25689 7.79334 2.743 10.1533 4.81939 12.88C7.02604 15.6124 9.60996 18.0436 12.4999 20.1067C15.3895 18.0457 17.9734 15.6167 20.1805 12.8867C22.2638 10.1533 22.743 7.79334 21.6666 5.68001C20.9722 4.34667 18.8888 3.28667 16.5694 3.91334C15.8257 4.12434 15.1362 4.48248 14.5454 4.96472C13.9545 5.44696 13.4754 6.04261 13.1388 6.71334C13.0865 6.83561 12.9975 6.9402 12.8831 7.0138C12.7688 7.0874 12.6342 7.1267 12.4965 7.1267C12.3588 7.1267 12.2242 7.0874 12.1098 7.0138C11.9954 6.9402 11.9064 6.83561 11.8541 6.71334C11.5201 6.04093 11.0418 5.44389 10.4506 4.96135C9.85936 4.47881 9.1686 4.12167 8.42356 3.91334C7.97215 3.78747 7.50472 3.72241 7.03467 3.72001Z" fill="black"/>
</g>
</svg>
