<svg width="36" height="39" viewBox="0 0 36 39" fill="none" xmlns="http://www.w3.org/2000/svg">
<g id="user1">
<path id="Vector" d="M18 19.5C23.6812 19.5 28.2857 15.1354 28.2857 9.75C28.2857 4.36465 23.6812 0 18 0C12.3188 0 7.71429 4.36465 7.71429 9.75C7.71429 15.1354 12.3188 19.5 18 19.5ZM25.2 21.9375H23.858C22.0741 22.7145 20.0893 23.1562 18 23.1562C15.9107 23.1562 13.9339 22.7145 12.142 21.9375H10.8C4.8375 21.9375 0 26.523 0 32.175V35.3438C0 37.3623 1.72768 39 3.85714 39H32.1429C34.2723 39 36 37.3623 36 35.3438V32.175C36 26.523 31.1625 21.9375 25.2 21.9375Z" fill="black"/>
</g>
</svg>
