<svg xmlns="http://www.w3.org/2000/svg" width="46" height="51" fill="none" viewBox="0 0 46 51"><g id="user"><g id="Group"><path id="Vector" fill="#292D32" d="M45.511 25.0818C45.511 11.3068 35.2938 0.0818481 22.7555 0.0818481C10.2172 0.0818481 0 11.3068 0 25.0818C0 32.3318 2.84444 38.8568 7.35002 43.4318C7.35002 43.4568 7.35002 43.4568 7.32727 43.4818C7.55482 43.7318 7.82789 43.9318 8.05544 44.1568C8.19198 44.2818 8.30576 44.4068 8.44229 44.5069C8.85189 44.8819 9.307 45.2318 9.73935 45.5818C9.89864 45.7069 10.0352 45.8068 10.1945 45.9318C10.6268 46.2568 11.0819 46.5569 11.5598 46.8318C11.7191 46.9319 11.9011 47.0568 12.0604 47.1568C12.5155 47.4318 12.9934 47.6818 13.494 47.9068C13.6761 48.0068 13.8581 48.1068 14.0401 48.1818C14.5408 48.4068 15.0414 48.6068 15.542 48.7818C15.724 48.8568 15.9061 48.9318 16.0881 48.9818C16.6343 49.1568 17.1804 49.3068 17.7265 49.4568C17.8858 49.5068 18.0451 49.5568 18.2272 49.5818C18.8643 49.7318 19.5015 49.8318 20.1614 49.9068C20.2524 49.9068 20.3434 49.9319 20.4344 49.9568C21.2081 50.0318 21.9818 50.0818 22.7555 50.0818C23.5292 50.0818 24.3029 50.0318 25.0538 49.9568C25.1448 49.9568 25.2358 49.9319 25.3269 49.9068C25.9868 49.8318 26.6239 49.7318 27.2611 49.5818C27.4204 49.5568 27.5797 49.4818 27.7617 49.4568C28.3078 49.3068 28.8767 49.1818 29.4001 48.9818C29.5821 48.9068 29.7642 48.8318 29.9462 48.7818C30.4469 48.5818 30.9702 48.4068 31.4481 48.1818C31.6301 48.1068 31.8122 48.0068 31.9942 47.9068C32.4721 47.6818 32.95 47.4318 33.4278 47.1568C33.6099 47.0568 33.7692 46.9319 33.9284 46.8318C34.3836 46.5318 34.8387 46.2568 35.2938 45.9318C35.4531 45.8318 35.5896 45.7069 35.7489 45.5818C36.204 45.2318 36.6363 44.8819 37.0459 44.5069C37.1825 44.3818 37.2963 44.2568 37.4328 44.1568C37.6831 43.9318 37.9334 43.7068 38.161 43.4818C38.161 43.4568 38.161 43.4568 38.1382 43.4318C42.6666 38.8568 45.511 32.3318 45.511 25.0818ZM33.9967 37.5068C27.83 32.9568 17.7265 32.9568 11.5143 37.5068C10.513 38.2318 9.69384 39.0818 9.01118 40.0068C5.55234 36.1568 3.41332 30.8818 3.41332 25.0818C3.41332 13.3568 12.0832 3.83185 22.7555 3.83185C33.4278 3.83185 42.0977 13.3568 42.0977 25.0818C42.0977 30.8818 39.9586 36.1568 36.4998 40.0068C35.8399 39.0818 34.998 38.2318 33.9967 37.5068Z"/><path id="Vector_2" fill="#292D32" d="M22.7555 12.4061C18.0451 12.4061 14.2222 16.6061 14.2222 21.7811C14.2222 26.8561 17.8403 30.9811 22.6417 31.1311H22.8465H23.0058H23.0513C27.6479 30.9561 31.266 26.8561 31.2888 21.7811C31.2888 16.6061 27.4659 12.4061 22.7555 12.4061Z"/></g></g></svg>